<svg height="464pt" viewBox="0 -36 464 464" width="464pt" xmlns="http://www.w3.org/2000/svg"><path d="m432 328h-24c-4.417969 0-8-3.582031-8-8v-48c0-4.417969 3.582031-8 8-8h32c4.417969 0 8 3.582031 8 8v40c0 8.835938-7.164062 16-16 16zm-16-16h16v-32h-16zm0 0" fill="#ff6243"/><path d="m368 360h-368v32h464v-32zm0 0" fill="#57565c"/><path d="m280 328h-256v32h256zm0 0" fill="#acabb1"/><path d="m416 328v-64h-80v64c0 17.671875 14.328125 32 32 32h16c17.671875 0 32-14.328125 32-32zm0 0" fill="#ff9478"/><path d="m152 56c-28.957031-.015625-54.316406 19.425781-61.8125 47.398438-7.5 27.96875 4.730469 57.488281 29.8125 71.960937 19.777344 11.519531 44.222656 11.519531 64 0 25.082031-14.472656 37.3125-43.992187 29.8125-71.960937-7.496094-27.972657-32.855469-47.414063-61.8125-47.398438zm0 0" fill="#ffde55"/><path d="m184 208v-32.640625c-19.777344 11.519531-44.222656 11.519531-64 0v32.640625zm0 0" fill="#ffc477"/><path d="m152 240c17.671875 0 32-14.328125 32-32h-64c0 17.671875 14.328125 32 32 32zm0 0" fill="#ffa733"/><path d="m24 344h256v16h-256zm0 0" fill="#898890"/><path d="m398.078125 240h-16c-.070313-3.988281.859375-7.929688 2.714844-11.464844 1.503906-2.832031 1.503906-6.222656 0-9.054687-3.621094-7.21875-3.621094-15.726563 0-22.945313.804687-1.371094 1.195312-2.945312 1.128906-4.535156h16c.070313 3.992188-.859375 7.9375-2.714844 11.472656-1.503906 2.835938-1.503906 6.234375 0 9.070313 3.617188 7.21875 3.617188 15.71875 0 22.9375-.804687 1.367187-1.195312 2.933593-1.128906 4.519531zm0 0" fill="#ffb655"/><path d="m366.078125 240h-16c-.070313-3.988281.859375-7.929688 2.714844-11.464844 1.503906-2.832031 1.503906-6.222656 0-9.054687-3.621094-7.21875-3.621094-15.726563 0-22.945313.804687-1.371094 1.195312-2.945312 1.128906-4.535156h16c.070313 3.992188-.859375 7.9375-2.714844 11.472656-1.503906 2.835938-1.503906 6.234375 0 9.070313 3.617188 7.21875 3.617188 15.71875 0 22.9375-.804687 1.367187-1.195312 2.933593-1.128906 4.519531zm0 0" fill="#ffb655"/><g fill="#ffa733"><path d="m168 136c-2.121094 0-4.15625-.839844-5.65625-2.335938l-10.34375-10.351562-10.328125 10.34375c-1.503906 1.503906-3.542969 2.347656-5.671875 2.34375-2.121094 0-4.15625-.84375-5.65625-2.34375l-16-16 11.328125-11.3125 10.328125 10.335938 10.328125-10.335938c1.503906-1.503906 3.542969-2.347656 5.671875-2.34375 2.121094 0 4.15625.839844 5.65625 2.335938l10.34375 10.351562 10.359375-10.351562 11.3125 11.328124-16 16c-1.503906 1.5-3.546875 2.34375-5.671875 2.335938zm0 0"/><path d="m144 0h16v32h-16zm0 0"/><path d="m61.496094 40.808594 11.3125-11.316406 22.628906 22.628906-11.316406 11.3125zm0 0"/><path d="m32 112h32v16h-32zm0 0"/><path d="m61.492188 199.1875 22.625-22.625 11.316406 11.3125-22.628906 22.628906zm0 0"/><path d="m208.574219 187.886719 11.3125-11.316407 22.625 22.628907-11.3125 11.3125zm0 0"/><path d="m240 112h32v16h-32zm0 0"/><path d="m208.578125 52.121094 22.625-22.628906 11.316406 11.3125-22.628906 22.628906zm0 0"/></g><path d="m184 288c-12.640625.035156-24.511719 6.0625-32 16.246094-7.488281-10.183594-19.359375-16.210938-32-16.246094h-96v16h96c13.253906 0 24 10.746094 24 24h16c0-13.253906 10.746094-24 24-24h96v-16zm0 0" fill="#d1d3d4"/></svg>